<svg height="512" viewBox="0 0 512 512" width="512" xmlns="http://www.w3.org/2000/svg"><g><g><path d="m383 352v36a19.994 19.994 0 0 1 -20 20h-236l-64 64v-64h-28a19.994 19.994 0 0 1 -20-20v-216a19.994 19.994 0 0 1 20-20h44v180a19.994 19.994 0 0 0 20 20z" fill="#57a4ff"/><path d="m217.92 243.39-1-1.04-9.92-10.35" fill="none"/><g fill="none"><path d="m311 216 16-24"/><path d="m311 216 24 32"/></g><path d="m216.92 242.35 1 1.04-1.24-.81c.08-.07.16-.15.24-.23z" fill="#57a4ff"/></g><g fill="#004fac"><path d="m476 40h-376a28.031 28.031 0 0 0 -28 28v76h-36a28.031 28.031 0 0 0 -28 28v216a28.031 28.031 0 0 0 28 28h20v56a8 8 0 0 0 13.66 5.66l61.65-61.66h232.69a28.031 28.031 0 0 0 28-28v-16.69l50.34 50.35a8 8 0 0 0 13.66-5.66v-56h20a28.031 28.031 0 0 0 28-28v-264a28.031 28.031 0 0 0 -28-28zm-100 348a12.01 12.01 0 0 1 -12 12h-236a8.008 8.008 0 0 0 -5.66 2.34l-50.34 50.35v-44.69a8 8 0 0 0 -8-8h-28a12.01 12.01 0 0 1 -12-12v-216a12.01 12.01 0 0 1 12-12h36v172a28.031 28.031 0 0 0 28 28h276zm112-56a12.01 12.01 0 0 1 -12 12h-28a8 8 0 0 0 -8 8v44.69l-50.34-50.35a8.008 8.008 0 0 0 -5.66-2.34h-284a12.01 12.01 0 0 1 -12-12v-264a12.01 12.01 0 0 1 12-12h376a12.01 12.01 0 0 1 12 12z"/><path d="m431.76 246.06-24-96a8 8 0 0 0 -7.76-6.06h-16a8 8 0 0 0 -7.76 6.06l-24 96a8 8 0 0 0 15.52 3.88l8.49-33.94h31.5l8.49 33.94a8 8 0 0 0 7.75 6.06 8.132 8.132 0 0 0 1.95-.24 7.994 7.994 0 0 0 5.82-9.7zm-51.51-46.06 10-40h3.5l10 40z"/><path d="m342.4 243.2-20.6-27.47 12.86-19.29a8 8 0 0 0 -13.32-8.88l-8.66 12.99c-3.58-5.66-8.46-12.15-14.38-17.05a23.991 23.991 0 1 0 -38.24-2.15 39.984 39.984 0 0 0 19.94 74.65c14.66 0 26.35-14.36 33.09-25.21l16.51 22.01a8 8 0 1 0 12.8-9.6zm-62.4-83.2a8 8 0 1 1 -8 8 8.011 8.011 0 0 1 8-8zm0 80a24 24 0 0 1 0-48c7.67 0 17.62 13.32 23.12 24-5.5 10.68-15.45 24-23.12 24z"/><path d="m236.78 250.46-8.39-8.74a27.744 27.744 0 0 0 3.61-13.72v-56a28.031 28.031 0 0 0 -28-28h-24a28.031 28.031 0 0 0 -28 28v56a28.031 28.031 0 0 0 28 28h24a27.826 27.826 0 0 0 12.89-3.16l8.33 8.7a8.006 8.006 0 1 0 11.56-11.08zm-20.78-22.46c0 .25-.02.5-.04.75l-2.18-2.29a8.006 8.006 0 0 0 -11.56 11.08l2.34 2.43c-.19.01-.37.03-.56.03h-24a12.01 12.01 0 0 1 -12-12v-56a12.01 12.01 0 0 1 12-12h24a12.01 12.01 0 0 1 12 12z"/></g></g></svg>